<svg id="Layer_1" data-name="Layer 1" xmlns="http://www.w3.org/2000/svg" viewBox="0 0 512 512"><title>amazon-flat</title><path d="M502.34,1.25H257.69c-141,0-257.69,119-257.69,260V505.87c0,5.88,7.15,4.8,13,4.8H257.69c141,0,254.31-108.45,254.31-249.46V16.55C512,10.67,508.22,1.25,502.34,1.25Z" fill="#59991f"/><path d="M97.7,349.38c40.45,35.13,84.77,67.78,144.38,67.8,1.16,0,2.33,0,3.53,0,37.92-.87,80.8-13.68,114.08-34.59l.19-.12a113,113,0,0,0,12.82-8.88,10.12,10.12,0,0,0,4.32-7.92,9.52,9.52,0,0,0-9.76-9.19,10.77,10.77,0,0,0-4.74,1.08c-1.7.69-3.47,1.46-5.09,2.16l-2.45,1L351.83,362v0c-34.24,13.89-70.2,22-103.49,22.76-1.23,0-2.45,0-3.66,0-52.34,0-95.05-24.28-138.12-48.2a9.86,9.86,0,0,0-4.55-1.21,8,8,0,0,0-5.38,2.08,7.33,7.33,0,0,0-2.28,5.36A8.49,8.49,0,0,0,97.7,349.38Z" fill="#fff"/><path d="M413.41,337a14.89,14.89,0,0,0-2.22-8l-.12-.21-.17-.21a11,11,0,0,0-4.24-2.76c-4.36-1.68-10.72-2.58-18.37-2.6a83.63,83.63,0,0,0-17.68,1.85l0-.39-6.13,2-.1.06L360.89,328v.14a54.87,54.87,0,0,0-11.2,6.28c-2.14,1.62-3.93,3.72-4,7a6.56,6.56,0,0,0,2.35,5,7.36,7.36,0,0,0,4.72,1.6,7.66,7.66,0,0,0,1-.06l.27,0,.25,0c3-.64,7.37-1.06,12.49-1.79a125.76,125.76,0,0,1,13.07-.85,35.52,35.52,0,0,1,7.19.58,8.27,8.27,0,0,1,1.91.6.83.83,0,0,1,.27.12,6,6,0,0,1,.17,1.77c.06,3.37-1.39,9.65-3.35,15.76s-4.26,12.26-5.8,16.34a8.32,8.32,0,0,0-.58,3.1,6.72,6.72,0,0,0,2.06,4.95,6.85,6.85,0,0,0,4.67,1.85h.06a9.68,9.68,0,0,0,5.84-2.22c15.58-14,21-36.4,21.21-49l-.06-2Z" fill="#fff"/><path d="M271,186.83c-9.16.69-19.74,1.39-30.29,2.78-16.21,2.14-32.39,4.95-45.77,11.31-26.05,10.56-43.67,33.09-43.67,66.2,0,41.57,26.76,62.71,60.58,62.71a117.1,117.1,0,0,0,28.86-3.51c13.4-4.24,24.64-12,38-26.09,7.73,10.56,9.85,15.51,23.23,26.77,3.51,1.39,7,1.39,9.85-.69,8.48-7.07,23.25-19.75,31-26.79,3.55-2.81,2.83-7,.71-10.54-7.73-9.87-15.48-18.33-15.48-37.37v-63.4c0-26.77,2.12-51.45-17.6-69.74-16.18-14.78-41.55-20.43-61.27-20.43H240.7c-35.9,2.1-73.94,17.61-82.4,62-1.41,5.63,2.83,7.73,5.65,8.44l39.41,4.93c4.24-.71,6.36-4.24,7-7.73,3.53-15.51,16.21-23.26,30.29-24.67h2.83c8.46,0,17.6,3.53,22.52,10.58,5.63,8.46,4.94,19.73,4.94,29.6Zm-7.75,83.83A34.2,34.2,0,0,1,240.7,289c-1.41,0-3.51.69-5.65.69-15.48,0-24.64-12-24.64-29.58,0-22.57,13.4-33.13,30.29-38.06,9.16-2.1,19.72-2.83,30.29-2.83v8.46C271,243.89,271.68,256.57,263.24,270.66Z" fill="#fff"/></svg>